# xmcd
#
# Track frame offsets: 
#        150
#        19629
#        38474
#        67657
#        85742
#        102502
#        127331
#        147994
#        165017
#        182655
#
# Disc length: 2779 seconds
#
# Revision: 3
# Processed by: cddbd v1.5.2PL0 Copyright (c) Steve Scherf et al.
# Submitted via: ExactAudioCopy v1.3
#
DISCID=740ad90a
DTITLE=Kenny Wayne Shepherd Band - The Traveler
DYEAR=2019
DGENRE=Rock
TTITLE0=Woman Like You
TTITLE1=Long Time Running
TTITLE2=I Want You
TTITLE3=Tailwind
TTITLE4=Gravity
TTITLE5=We All Alright
TTITLE6=Take It on Home
TTITLE7=Mr. Soul
TTITLE8=Better With Time
TTITLE9=Turn to Stone
EXTD=YEAR: 2019
EXTT0=
EXTT1=
EXTT2=
EXTT3=
EXTT4=
EXTT5=
EXTT6=
EXTT7=
EXTT8=
EXTT9=
PLAYORDER=
